<svg xmlns="http://www.w3.org/2000/svg" width="27" height="54" viewBox="0 0 27 54">
	<svg xmlns="http://www.w3.org/2000/svg" width="26" height="26" viewBox="0 0 26 26"><title>user-icon</title><g id="Layer_2" data-name="Layer 2"><g id="Layer_1-2" data-name="Layer 1"><path fill="#fff" d="M13,26A13,13,0,1,1,26,13,13,13,0,0,1,13,26ZM13,.89A12.11,12.11,0,1,0,25.11,13,12.12,12.12,0,0,0,13,.89Z"/><path fill="#fff" d="M13,26a13,13,0,0,1-8.59-3.24l-.32-.29.28-.33a8.28,8.28,0,0,1,4.15-2.32,3.36,3.36,0,0,0,1.21-.68,1.4,1.4,0,0,0,.45-.75,10.84,10.84,0,0,0,0-1.43,7.21,7.21,0,0,1-1.23-2.41,1.81,1.81,0,0,1-.85-1.26,1.89,1.89,0,0,1,.16-1.39c-.49-2.86-.17-5,.94-6.31A4.86,4.86,0,0,1,13.12,4h.16c1.45,0,1.78.3,2.1.73a.94.94,0,0,0,.18.21,2.34,2.34,0,0,1,1.93.93c.87,1.16,1,3.37.29,6A1.73,1.73,0,0,1,18,13.32a1.83,1.83,0,0,1-1,1.28A6.51,6.51,0,0,1,15.86,17v1.31a1.22,1.22,0,0,0,.49.84l.19.19a4.74,4.74,0,0,0,1,.53,8.14,8.14,0,0,1,4.05,2.29l.28.33-.33.29A13,13,0,0,1,13,26ZM5.36,22.39a12.09,12.09,0,0,0,15.28,0,8.08,8.08,0,0,0-3.36-1.7A4.85,4.85,0,0,1,15.94,20l-.21-.2A2.13,2.13,0,0,1,15,18.35V16.62l.12-.13a5.84,5.84,0,0,0,1.13-2.44l.18-.62.36.27a1.13,1.13,0,0,0,.32-.57,1.42,1.42,0,0,0,0-.67l-.34-.11.07-.43c.69-2.41.67-4.51-.06-5.48a1.42,1.42,0,0,0-1.22-.58h-.24l-.12-.06a1.92,1.92,0,0,1-.54-.52c-.15-.21-.27-.37-1.38-.37h-.15A4,4,0,0,0,9.87,6.17c-1,1.15-1.2,3.1-.7,5.81l.08.44-.3.05a1.88,1.88,0,0,0,0,.66,1,1,0,0,0,.38.64h.34l0,.31a6.24,6.24,0,0,0,1.22,2.39l.12.12v.18a11.82,11.82,0,0,1,0,1.79,2.24,2.24,0,0,1-.69,1.22,4.13,4.13,0,0,1-1.56.89A8.26,8.26,0,0,0,5.36,22.39Z"/></g></g></svg>
	<svg xmlns="http://www.w3.org/2000/svg" width="26" height="26" viewBox="0 0 26 26" y="27" x="0px" style="enable-background:new 0 0 26 26;" xml:space="preserve"><circle fill="#FFFFFF" cx="13" cy="13" r="13"/><title>hovered-user-icon</title><path fill="#E06100" d="M21.6,22.1c-1.1-1.1-2.5-1.9-4.1-2.3c-0.4-0.1-0.7-0.3-1-0.5l-0.2-0.2c-0.3-0.2-0.5-0.5-0.5-0.8V17
	c0.5-0.7,0.9-1.5,1.1-2.4c0.5-0.2,0.9-0.7,1-1.3c0.1-0.5,0.1-1-0.2-1.5c0.7-2.6,0.6-4.8-0.3-6c-0.5-0.6-1.2-1-1.9-0.9
	c-0.1-0.1-0.1-0.1-0.2-0.2C15,4.3,14.6,4,13.2,4H13c-1.5-0.1-2.9,0.5-3.9,1.6C8,6.9,7.7,9.1,8.2,11.9c-0.1,0.4-0.2,0.9-0.1,1.3
	c0.1,0.5,0.4,1,0.9,1.3c0.3,0.9,0.7,1.7,1.2,2.4c0,0.5,0,1,0,1.4c-0.1,0.3-0.2,0.6-0.5,0.8c-0.4,0.3-0.8,0.5-1.2,0.7
	c-1.6,0.4-3,1.2-4.2,2.3L4,22.4l0.1,0.1c0.4-0.1,0.8-0.1,1.2-0.2c1-0.8,2.1-1.4,3.4-1.7c0.6-0.2,1.1-0.5,1.6-0.9
	c0.4-0.3,0.6-0.8,0.7-1.2c0-0.6,0-1.2,0-1.8v-0.2l-0.1-0.1c-0.6-0.7-1-1.5-1.2-2.4v-0.3H9.4C9.1,13.6,9,13.3,9,13.1
	c0-0.2,0-0.4,0-0.7l0.3-0.1l-0.1-0.4C8.7,9.2,8.9,7.3,9.9,6.1c0.8-0.9,2-1.4,3.3-1.3h0.2c1.1,0,1.2,0.2,1.4,0.4
	c0.1,0.2,0.3,0.4,0.5,0.5l0.1,0.1h0.2c0.5,0,0.9,0.2,1.2,0.6c0.7,1,0.8,3.1,0.1,5.5l-0.1,0.4l0.3,0.1c0.1,0.2,0.1,0.4,0,0.7
	c0,0.2-0.2,0.4-0.3,0.6l-0.4-0.3L16.2,14c-0.2,0.9-0.6,1.7-1.1,2.4L15,16.6v1.7c0,0.6,0.3,1.1,0.7,1.4l0.2,0.2
	c0.4,0.3,0.9,0.5,1.3,0.7c1.2,0.3,2.4,0.9,3.3,1.7c0.4,0,0.8,0.1,1.2,0.2l0,0L21.6,22.1z"/></svg>
</svg>
